<svg id="Layer_1" xmlns="http://www.w3.org/2000/svg" viewBox="0 0 175 135"><style>.st0{fill:#e0e0e0}.st1{fill:#fff;stroke:#ccc;stroke-width:2;stroke-linecap:round;stroke-linejoin:round}.st2{opacity:.5}.st3{fill:#cbcbcb}.st4{fill:#5bbc2e}.st5{fill:#b0e44f}.st6{fill:none;stroke:#7d7d7d;stroke-width:2.5;stroke-linecap:round;stroke-linejoin:round}.st7{fill:#d3f7fe}.st8{fill:#ccc}.st9{fill:#fff}.st10{fill:#b2b2b2}.st11{fill:none;stroke:#ccc;stroke-width:2;stroke-linecap:square;stroke-linejoin:round}.st12,.st13,.st14,.st15,.st16{fill:#c8ec84;stroke:#7d7d7d;stroke-width:2.5;stroke-linecap:round;stroke-linejoin:round}.st13,.st14,.st15,.st16{fill:#a1edfe}.st14,.st15,.st16{fill:#9ae57c}.st15,.st16{fill:#fff}.st16{fill:#b2b2b2}.st17{fill:#a7eefe}.st18{fill:#a0e784}.st19{fill:#cbed8b}.st20{fill:#d0f096}.st21{fill:#d0ef95}.st22,.st23,.st24{fill:#a9e98f;stroke:#a9e98f;stroke-width:2;stroke-linecap:round;stroke-linejoin:round}.st23,.st24{fill:none}.st24{fill:#fff;stroke:#b2b2b2;stroke-width:2.5}.st25{fill:#79e6fd}.st26{stroke-width:1.25}.st26,.st27{fill:none;stroke:#ebebeb;stroke-linecap:round;stroke-linejoin:round}.st28{fill:#f2f2f2}.st29{fill:#b5f1fe}.st30,.st31{fill:#e6e6e6;stroke:#7d7d7d;stroke-width:2.5;stroke-linecap:round;stroke-linejoin:round}.st31{fill:#b0e44f;stroke:#b0e44f;stroke-width:2}.st32{fill:#6fda44}.st33,.st34{fill:none;stroke:#b2b2b2;stroke-width:2.44;stroke-linecap:round;stroke-linejoin:round}.st34{fill:#d5f7ff;stroke-width:2.5}.st35{fill:#73e6ff}.st36{fill:#cbed8b;stroke:#7d7d7d;stroke-width:2.5;stroke-linecap:round;stroke-linejoin:round}.st37{fill:#909090}.st38{fill:#d5f7ff;stroke:#909090;stroke-width:3;stroke-linecap:round;stroke-linejoin:round}.st39{fill:#a3eeff}.st40,.st41,.st42{fill:#f9f9f9;stroke:#7d7d7d;stroke-width:2.5;stroke-linecap:round;stroke-linejoin:round}.st41,.st42{fill:#e0e0e0;stroke:#909090;stroke-width:3}.st42{fill:none}</style><path class="st30" d="M22.2 22H154c2.7 0 4.8 2.1 4.8 4.8v87.5c0 2.7-2.1 4.8-4.8 4.8H22.2c-2.7 0-4.8-2.1-4.8-4.8V26.8c0-2.6 2.2-4.8 4.8-4.8z"/><path class="st30" d="M23.1 119.1c-3.1 0-5.6-2.5-5.6-5.6v-86c0-3.1 2.5-5.6 5.6-5.6h130.3c3.1 0 5.6 2.5 5.6 5.6v86c0 3.1-2.5 5.6-5.6 5.6"/><path class="st9" d="M151.2 111.9l-42-.2-41.9.2-41.9-.2-.2-27.4.2-27.5-.1-27.6 42 .2 41.9-.2 41.9.2.2 27.4-.2 27.5z"/><path class="st6" d="M151.2 111.9l-42-.2-41.9.2-41.9-.2-.2-27.4.2-27.5-.1-27.6 42 .2 41.9-.2 41.9.2.2 27.4-.2 27.5z"/><path class="st30" d="M4.6 119.1h165.7c0 3.3-2.7 6-6 6H10.6c-3.3 0-6-2.7-6-6z"/><path class="st31" d="M37.5 40.8h20.3v4.4H37.5z"/><path class="st5" d="M65.4 62.6h31.5v2.5H65.4zM38 62.6h22.4v2.5H38zM37.5 85h37.9v2.5H37.5zM83.4 85h10.1v2.5H83.4z"/><path class="st32" d="M47.6 69.8H118v2.5H47.6zM47.6 76.7h66.6v2.5H47.6zM47.6 92.8H118v2.5H47.6z"/><path class="st18" d="M49.7 24.6L33.2 42.7l.1 2.8 42.4.1-.2-21.3-9-9L55 28.4z"/><path class="st9" d="M66.5 15.5l8.1 7.8.6-20.8-42.3.4-.6 40.3 17.4-18.3 5 4.4 11.8-13.8"/><path class="st33" d="M32.3 44.7l17.4-20.1 10.7 10.7M54.6 29.5l11.9-14.2 9 9"/><ellipse transform="rotate(-.628 43.455 13.268) scale(.99996)" class="st19" cx="43.5" cy="13.3" rx="5.8" ry="5.8"/><path class="st33" d="M32.1 2.5h43.4v43.4H32.1z"/><path class="st34" d="M145 1.5v43.9h-6.2l-12 12.1V45.4H81.9V1.5z"/><circle class="st35" cx="101.4" cy="24.1" r="4.2"/><circle class="st35" cx="125.6" cy="24.1" r="4.2"/><circle class="st35" cx="113.5" cy="24.1" r="4.2"/><path transform="rotate(-89.86 67.033 126.149)" class="st28" d="M59.9 104.8h14.2v42.8H59.9z"/><path class="st9" d="M93.8 131c0-.9-.4-1.9-1-2.5 1.4-1.4 1.4-3.6 0-5 .7-.7 1-1.6 1-2.5 0-2-7.1-2-7.1 0 0 .9.3 1.7.9 2.3l.2.2c-1.3 1.3-1.4 3.4-.2 4.8l.2.2c-1.3 1.3-1.4 3.4-.2 4.8.6.8 6.2-1.3 6.2-2.3zm-3.5-11.9z"/><path class="st15" d="M88.4 133.3l14.4-7-14.3-7.2"/><path transform="rotate(-89.86 43.284 126.102)" class="st15" d="M36.2 123.7h14.2v4.7H36.2z"/><path class="st36" d="M28.2 128.8v-5.5c0-2.4 1.9-4.3 4.3-4.3h7.9v14.2h-7.9c-2.4-.1-4.4-2-4.3-4.4z"/><path class="st6" d="M88.4 133.3l-42.8-.1.1-14.2 42.8.1"/><path class="st0" d="M86.7 126c0-.9.3-1.7.9-2.3l.2-.3-34.5-.1c-1.4 0-2.6 1.2-2.6 2.6s1.2 2.6 2.6 2.6l34.5.1-.3-.2c-.5-.8-.8-1.6-.8-2.4z"/><path class="st37" d="M95.9 129.6v-6.8l6.9 3.5z"/></svg>