<svg id="Layer_1" xmlns="http://www.w3.org/2000/svg" viewBox="0 0 175 135"><style>.st0{fill:#e0e0e0}.st1{fill:#fff;stroke:#ccc;stroke-width:2;stroke-linecap:round;stroke-linejoin:round}.st2{opacity:.5}.st3{fill:#cbcbcb}.st4{fill:#5bbc2e}.st5{fill:#b0e44f}.st6{fill:none;stroke:#7d7d7d;stroke-width:2.5;stroke-linecap:round;stroke-linejoin:round}.st7{fill:#d3f7fe}.st8{fill:#ccc}.st9{fill:#fff}.st10{fill:#b2b2b2}.st11{fill:none;stroke:#ccc;stroke-width:2;stroke-linecap:square;stroke-linejoin:round}.st12{fill:#c8ec84}.st12,.st13,.st14,.st15,.st16{stroke:#7d7d7d;stroke-width:2.5;stroke-linecap:round;stroke-linejoin:round}.st13{fill:#a1edfe}.st14{fill:#9ae57c}.st15{fill:#fff}.st16{fill:#b2b2b2}.st17{fill:#a7eefe}.st18{fill:#a0e784}.st19{fill:#cbed8b}.st20{fill:#d0f096}.st21{fill:#d0ef95}.st22{fill:#a9e98f;stroke-linecap:round;stroke-linejoin:round}.st22,.st23{stroke:#a9e98f;stroke-width:2}.st23,.st24{stroke-linecap:round;stroke-linejoin:round}.st23{fill:none}.st24{fill:#fff;stroke:#b2b2b2;stroke-width:2.5}.st25{fill:#79e6fd}.st26{stroke-width:1.25}.st26,.st27{fill:none;stroke:#ebebeb;stroke-linecap:round;stroke-linejoin:round}.st28{fill:#f2f2f2}.st29{fill:#b5f1fe}.st30,.st31{fill:#e6e6e6;stroke:#7d7d7d;stroke-width:2.5;stroke-linecap:round;stroke-linejoin:round}.st31{fill:#b0e44f;stroke:#b0e44f;stroke-width:2}.st32{fill:#6fda44}.st33,.st34{fill:none;stroke:#b2b2b2;stroke-width:2.44;stroke-linecap:round;stroke-linejoin:round}.st34{fill:#d5f7ff;stroke-width:2.5}.st35{fill:#73e6ff}.st36{fill:#cbed8b;stroke:#7d7d7d;stroke-width:2.5;stroke-linecap:round;stroke-linejoin:round}.st37{fill:#909090}.st38{fill:#d5f7ff;stroke:#909090;stroke-width:3;stroke-linecap:round;stroke-linejoin:round}.st39{fill:#a3eeff}.st40,.st41,.st42{fill:#f9f9f9;stroke:#7d7d7d;stroke-width:2.5;stroke-linecap:round;stroke-linejoin:round}.st41,.st42{fill:#e0e0e0;stroke:#909090;stroke-width:3}.st42{fill:none}</style><path class="st0" d="M45.3 9.2h84.4c3.3 0 6 2.7 6 6v110.9c0 3.3-2.7 6-6 6H45.3c-3.3 0-6-2.7-6-6V15.3c-.1-3.4 2.6-6.1 6-6.1z"/><path class="st1" d="M47.1 93.5h80.8v29.8H47.1z"/><g class="st2"><path class="st3" d="M53.5 99.9h5.9c.5 0 .9.4.9.9v5.9c0 .5-.4.9-.9.9h-5.9c-.5 0-.9-.4-.9-.9v-5.9c0-.5.4-.9.9-.9z"/><path class="st4" d="M53.5 111.2h5.9c.5 0 .9.4.9.9v5.9c0 .5-.4.9-.9.9h-5.9c-.5 0-.9-.4-.9-.9v-5.9c0-.5.4-.9.9-.9z"/><path class="st5" d="M65.9 99.9h5.9c.5 0 .9.4.9.9v5.9c0 .5-.4.9-.9.9h-5.9c-.5 0-.9-.4-.9-.9v-5.9c0-.5.4-.9.9-.9z"/><path class="st3" d="M65.9 111.2h5.9c.5 0 .9.4.9.9v5.9c0 .5-.4.9-.9.9h-5.9c-.5 0-.9-.4-.9-.9v-5.9c0-.5.4-.9.9-.9z"/><path class="st4" d="M78.3 99.9h5.9c.5 0 .9.4.9.9v5.9c0 .5-.4.9-.9.9h-5.9c-.5 0-.9-.4-.9-.9v-5.9c.1-.5.5-.9.9-.9z"/><path class="st3" d="M78.3 111.2h5.9c.5 0 .9.4.9.9v5.9c0 .5-.4.9-.9.9h-5.9c-.5 0-.9-.4-.9-.9v-5.9c.1-.5.5-.9.9-.9zm12.5-11.3h5.9c.5 0 .9.4.9.9v5.9c0 .5-.4.9-.9.9h-5.9c-.5 0-.9-.4-.9-.9v-5.9c0-.5.4-.9.9-.9z"/><path class="st5" d="M90.8 111.2h5.9c.5 0 .9.4.9.9v5.9c0 .5-.4.9-.9.9h-5.9c-.5 0-.9-.4-.9-.9v-5.9c0-.5.4-.9.9-.9z"/><path class="st3" d="M103.2 99.9h5.9c.5 0 .9.4.9.9v5.9c0 .5-.4.9-.9.9h-5.9c-.5 0-.9-.4-.9-.9v-5.9c0-.5.4-.9.9-.9zm0 11.3h5.9c.5 0 .9.4.9.9v5.9c0 .5-.4.9-.9.9h-5.9c-.5 0-.9-.4-.9-.9v-5.9c0-.5.4-.9.9-.9z"/><path class="st5" d="M115.6 99.9h5.9c.5 0 .9.4.9.9v5.9c0 .5-.4.9-.9.9h-5.9c-.5 0-.9-.4-.9-.9v-5.9c.1-.5.4-.9.9-.9z"/><path class="st3" d="M115.6 111.2h5.9c.5 0 .9.4.9.9v5.9c0 .5-.4.9-.9.9h-5.9c-.5 0-.9-.4-.9-.9v-5.9c.1-.5.4-.9.9-.9z"/></g><path class="st6" d="M45.3 10.5h84.4c3.3 0 6 2.7 6 6v110.9c0 3.3-2.7 6-6 6H45.3c-3.3 0-6-2.7-6-6V16.5c-.1-3.3 2.6-6 6-6z"/><path class="st7" d="M47.1 19.1h80.8v64.4H47.1z"/><path class="st8" d="M53.5 98.1h5.9c.5 0 .9.4.9.9v5.9c0 .5-.4.9-.9.9h-5.9c-.5 0-.9-.4-.9-.9V99c0-.6.4-.9.9-.9z"/><path class="st4" d="M53.5 109.4h5.9c.5 0 .9.4.9.9v5.9c0 .5-.4.9-.9.9h-5.9c-.5 0-.9-.4-.9-.9v-5.9c0-.6.4-.9.9-.9z"/><path class="st5" d="M65.9 98.1h5.9c.5 0 .9.4.9.9v5.9c0 .5-.4.9-.9.9h-5.9c-.5 0-.9-.4-.9-.9V99c0-.6.4-.9.9-.9z"/><path class="st8" d="M65.9 109.4h5.9c.5 0 .9.4.9.9v5.9c0 .5-.4.9-.9.9h-5.9c-.5 0-.9-.4-.9-.9v-5.9c0-.6.4-.9.9-.9z"/><path class="st4" d="M78.3 98.1h5.9c.5 0 .9.4.9.9v5.9c0 .5-.4.9-.9.9h-5.9c-.5 0-.9-.4-.9-.9V99c.1-.6.5-.9.9-.9z"/><path class="st8" d="M78.3 109.4h5.9c.5 0 .9.4.9.9v5.9c0 .5-.4.9-.9.9h-5.9c-.5 0-.9-.4-.9-.9v-5.9c.1-.6.5-.9.9-.9zm12.5-11.3h5.9c.5 0 .9.4.9.9v5.9c0 .5-.4.9-.9.9h-5.9c-.5 0-.9-.4-.9-.9V99c0-.6.4-.9.9-.9z"/><path class="st5" d="M90.8 109.4h5.9c.5 0 .9.4.9.9v5.9c0 .5-.4.9-.9.9h-5.9c-.5 0-.9-.4-.9-.9v-5.9c0-.6.4-.9.9-.9z"/><path class="st8" d="M103.2 98.1h5.9c.5 0 .9.4.9.9v5.9c0 .5-.4.9-.9.9h-5.9c-.5 0-.9-.4-.9-.9V99c0-.6.4-.9.9-.9zm0 11.3h5.9c.5 0 .9.4.9.9v5.9c0 .5-.4.9-.9.9h-5.9c-.5 0-.9-.4-.9-.9v-5.9c0-.6.4-.9.9-.9z"/><path class="st5" d="M115.6 98.1h5.9c.5 0 .9.4.9.9v5.9c0 .5-.4.9-.9.9h-5.9c-.5 0-.9-.4-.9-.9V99c.1-.6.4-.9.9-.9z"/><path class="st8" d="M115.6 109.4h5.9c.5 0 .9.4.9.9v5.9c0 .5-.4.9-.9.9h-5.9c-.5 0-.9-.4-.9-.9v-5.9c.1-.6.4-.9.9-.9z"/><path class="st6" d="M47.1 19.1h80.8v64.4H47.1z"/><path class="st9" d="M57.5 82V29.1h59.9V82"/><path class="st10" d="M63.8 42.7l.8-.9c.2.3.6.5 1.1.6.4 0 .8-.3.8-.8v-3.9h1.3v3.8c.1.6-.1 1.2-.5 1.6-.4.4-1 .6-1.5.5-.9 0-1.6-.3-2-.9zm5-2c0-1.7 1.4-3.1 3.1-3.1S75 39 75 40.7c0 1.7-1.4 3.1-3.1 3.1s-3.1-1.4-3.1-3.1zm4.8 0c0-1-.7-1.8-1.7-1.8h-.1c-1 0-1.7.8-1.7 1.7v.1c0 1 .7 1.8 1.7 1.8h.1c.9-.1 1.7-.9 1.7-1.8zm2.4-2.9h2.7c.6 0 1.1.1 1.5.5.3.3.4.6.4 1 0 .5-.3 1-.8 1.2.7.2 1.1.7 1.1 1.4 0 1.1-.9 1.6-2.2 1.6H76v-5.7zm2.4 2.3c.6 0 .9-.2.9-.6 0-.4-.3-.6-.8-.6h-1.3v1.2h1.2zm.4 2.3c.6 0 .9-.2.9-.6 0-.4-.3-.6-1-.6h-1.5v1.3l1.6-.1zm5.6-4.6h2.4c1.1-.1 2 .6 2.2 1.7v.3c0 1.1-.9 2.1-2.1 2h-1.3v1.7h-1.3l.1-5.7zm2.3 2.9c.5 0 .9-.3 1-.8v-.1c0-.5-.4-.9-.9-.9h-1.2v1.8h1.1zm3 0c0-1.7 1.4-3.1 3.1-3.1 1.7 0 3.1 1.4 3.1 3.1 0 1.7-1.4 3.1-3.1 3.1-1.7-.1-3.1-1.4-3.1-3.1zm4.8 0c0-1-.7-1.8-1.7-1.8h-.1c-1 0-1.7.8-1.7 1.7v.1c0 1 .7 1.8 1.7 1.8h.1c.9 0 1.7-.8 1.7-1.8zm2 2l.7-.9c.5.4 1.1.7 1.7.7.5 0 .8-.2.8-.5s-.2-.5-1.2-.7c-1.2-.3-2-.6-2-1.8 0-1 .9-1.8 1.9-1.7h.2c.8 0 1.5.2 2.1.7l-.7 1c-.4-.3-1-.5-1.5-.6-.1-.1-.5.1-.5.4v.1c0 .4.2.5 1.2.8 1.2.3 1.8.7 1.8 1.7s-.8 1.8-1.9 1.8h-.3c-.8-.1-1.6-.4-2.3-1zm6.9-3.8h-1.8v-1.2h4.8v1.2h-1.8v4.6h-1.3c.1 0 .1-4.6.1-4.6z"/><path class="st11" d="M64.5 53.9h19.7m-19.7 5.4h46m-46 5.4h46m-46 5.5h46m-46 5.4h46"/><path class="st12" d="M96.4 5.5v-1c0-1.6 1.3-3 3-3 1.6 0 3 1.3 3 3v1"/><path class="st13" d="M105.6 5.5v-1c0-1.6 1.3-3 3-3 1.6 0 3 1.3 3 3v1"/><path class="st14" d="M115.3 5.5v-1c0-1.6 1.3-3 3-3 1.6 0 3 1.3 3 3v1"/><path class="st6" d="M92.8 9.4V6.2H124v3.2"/></svg>