<svg id="Layer_1" xmlns="http://www.w3.org/2000/svg" viewBox="0 0 175 135"><style>.st0{fill:#e0e0e0}.st1{fill:#fff;stroke:#ccc;stroke-width:2;stroke-linecap:round;stroke-linejoin:round}.st2{opacity:.5}.st3{fill:#cbcbcb}.st4{fill:#5bbc2e}.st5{fill:#b0e44f}.st6{fill:none;stroke:#7d7d7d;stroke-width:2.5;stroke-linecap:round;stroke-linejoin:round}.st7{fill:#d3f7fe}.st8{fill:#ccc}.st9{fill:#fff}.st10{fill:#b2b2b2}.st11{fill:none;stroke:#ccc;stroke-width:2;stroke-linecap:square;stroke-linejoin:round}.st12{fill:#c8ec84}.st12,.st13,.st14,.st15,.st16{stroke:#7d7d7d;stroke-width:2.5;stroke-linecap:round;stroke-linejoin:round}.st13{fill:#a1edfe}.st14{fill:#9ae57c}.st15{fill:#fff}.st16{fill:#b2b2b2}.st17{fill:#a7eefe}.st18{fill:#a0e784}.st19{fill:#cbed8b}.st20{fill:#d0f096}.st21{fill:#d0ef95}.st22{fill:#a9e98f;stroke-linecap:round;stroke-linejoin:round}.st22,.st23{stroke:#a9e98f;stroke-width:2}.st23,.st24{stroke-linecap:round;stroke-linejoin:round}.st23{fill:none}.st24{fill:#fff;stroke:#b2b2b2;stroke-width:2.5}.st25{fill:#79e6fd}.st26{stroke-width:1.25}.st26,.st27{fill:none;stroke:#ebebeb;stroke-linecap:round;stroke-linejoin:round}.st28{fill:#f2f2f2}.st29{fill:#b5f1fe}.st30,.st31{fill:#e6e6e6;stroke:#7d7d7d;stroke-width:2.5;stroke-linecap:round;stroke-linejoin:round}.st31{fill:#b0e44f;stroke:#b0e44f;stroke-width:2}.st32{fill:#6fda44}.st33,.st34{fill:none;stroke:#b2b2b2;stroke-width:2.44;stroke-linecap:round;stroke-linejoin:round}.st34{fill:#d5f7ff;stroke-width:2.5}.st35{fill:#73e6ff}.st36{fill:#cbed8b;stroke:#7d7d7d;stroke-width:2.5;stroke-linecap:round;stroke-linejoin:round}.st37{fill:#909090}.st38{fill:#d5f7ff;stroke:#909090;stroke-width:3;stroke-linecap:round;stroke-linejoin:round}.st39{fill:#a3eeff}.st40,.st41,.st42{fill:#f9f9f9;stroke:#7d7d7d;stroke-width:2.5;stroke-linecap:round;stroke-linejoin:round}.st41,.st42{fill:#e0e0e0;stroke:#909090;stroke-width:3}.st42{fill:none}</style><path class="st38" d="M39 89c-1.9 1.6-4.7 1.3-6.2-.6L13.7 65.3c-1.5-1.9-1.3-4.7.6-6.2L53.2 27c1.9-1.6 4.7-1.3 6.2.6l19.1 23.1c1.6 1.9 1.3 4.7-.6 6.2l-7.8 6.5"/><path class="st39" d="M48.5 66.7l-8.2-11.3c-.4-.4-.4-1.1 0-1.5l.1-.1 4.3-4.3c1.2-1.2 2.7-2.6 4.5-2.7 1.3 0 2.5.5 3.3 1.5 3 3.5 2.9 7.4.3 9.9l-2.1 2.1c-.4.4-.4.8.2 1.6l2.3 3.2"/><path class="st35" d="M43 67.3L34.9 56c-.4-.4-.4-1.1 0-1.5l.1-.1 4.3-4.3c1.2-1.2 2.7-2.6 4.5-2.7 1.3 0 2.5.5 3.3 1.5 3 3.5 2.9 7.4.3 9.9L45.3 61c-.4.4-.4.8.2 1.6l2.3 3.2"/><path class="st40" d="M62.9 112.2v21.3h99.4V1.5H62.9V72"/><path class="st5" d="M83.7 34.7c-2-.3-3.9-1-5.5-2.2l1.8-2.6c1.1.9 2.4 1.6 3.8 1.9v-3.7c-3.3-.9-5-2.2-5-4.9 0-2.6 1.9-4.2 4.9-4.5v-1.4h2.4v1.4c1.6.2 3 .8 4.3 1.7L88.8 23c-.8-.6-1.8-1.1-2.8-1.4v3.5c3.5.9 5 2.4 5 5s-2 4.2-4.9 4.6V37h-2.4v-2.3zm.1-13.3c-.8 0-1.5.6-1.5 1.4 0 .7.3 1.2 1.6 1.6l-.1-3zm3.8 8.9c0-.8-.4-1.3-1.6-1.7v3.2c1.1-.1 1.6-.6 1.6-1.5z"/><path class="st10" d="M102.8 23.7h1.5v6.8h-1.5v-6.8zm3.2 0h1.4l3.2 4.2v-4.2h1.5v6.8h-1.3l-3.4-4.3v4.3H106v-6.8zm7.2 0h1.7l1.8 4.8 1.8-4.8h1.7l-2.8 6.9H116l-2.8-6.9zm7.2 3.4c0-2 1.6-3.6 3.6-3.6s3.6 1.6 3.6 3.6-1.6 3.6-3.6 3.6-3.6-1.6-3.6-3.6zm5.7 0c0-1.2-.9-2.1-2.1-2.1-1.1 0-2.1.8-2.1 2v.1c0 1.2.9 2.1 2.1 2.1 1.1 0 2.1-.8 2.1-2v-.1zm3-3.4h1.6v6.8h-1.5l-.1-6.8zm2.9 3.4c0-1.9 1.5-3.5 3.4-3.5h.1c1-.1 2 .3 2.7 1.1l-1 1.1c-.5-.5-1.1-.7-1.7-.8-1.1 0-2 .9-2 2v.1c0 1.1.8 2.1 2 2.1.7 0 1.3-.3 1.8-.8l1 1c-.7.8-1.7 1.3-2.8 1.2-1.9-.1-3.5-1.6-3.5-3.5zm7.5-3.4h5.2V25H141v1.4h3.2v1.3H141v1.4h3.7v1.3h-5.3l.1-6.7z"/><path class="st6" d="M74 50.2h75.6M74 70h75.6M74 89.7h75.6M74 60.1h75.6M74 99.6h75.6M74 79.8h75.6m-37.8 31.1h37.8m-18.9-58.6V89"/><path class="st41" d="M40.3 75.2l51.9-7.5c2.5-.4 4.9 1.4 5.2 3.9l4.4 30.8c.4 2.5-1.4 4.9-3.9 5.2L46 115.1c-2.5.4-4.9-1.4-5.2-3.9l-4.4-30.8c-.4-2.5 1.4-4.8 3.9-5.2z"/><path transform="rotate(-8.19 67.932 83.319)" class="st37" d="M37.1 78.9h61.6v8.9H37.1z"/><path class="st42" d="M55.5 105.3l30.6-4.4m-2.6-7.2l8.7-1.3"/></svg>