<svg id="Layer_1" xmlns="http://www.w3.org/2000/svg" viewBox="0 0 175 135"><style>.st0{fill:#e0e0e0}.st1{fill:#fff;stroke:#ccc;stroke-width:2;stroke-linecap:round;stroke-linejoin:round}.st2{opacity:.5}.st3{fill:#cbcbcb}.st4{fill:#5bbc2e}.st5{fill:#b0e44f}.st6{fill:none;stroke:#7d7d7d;stroke-width:2.5;stroke-linecap:round;stroke-linejoin:round}.st7{fill:#d3f7fe}.st8{fill:#ccc}.st9{fill:#fff}.st10{fill:#b2b2b2}.st11{fill:none;stroke:#ccc;stroke-width:2;stroke-linecap:square;stroke-linejoin:round}.st12,.st13,.st14,.st15,.st16{fill:#c8ec84;stroke:#7d7d7d;stroke-width:2.5;stroke-linecap:round;stroke-linejoin:round}.st13,.st14,.st15,.st16{fill:#a1edfe}.st14,.st15,.st16{fill:#9ae57c}.st15,.st16{fill:#fff}.st16{fill:#b2b2b2}.st17{fill:#a7eefe}.st18{fill:#a0e784}.st19{fill:#cbed8b}.st20{fill:#d0f096}.st21{fill:#d0ef95}.st22,.st23,.st24{fill:#a9e98f;stroke:#a9e98f;stroke-width:2;stroke-linecap:round;stroke-linejoin:round}.st23,.st24{fill:none}.st24{fill:#fff;stroke:#b2b2b2;stroke-width:2.5}.st25{fill:#79e6fd}.st26{stroke-width:1.25}.st26,.st27{fill:none;stroke:#ebebeb;stroke-linecap:round;stroke-linejoin:round}.st28{fill:#f2f2f2}.st29{fill:#b5f1fe}.st30,.st31{fill:#e6e6e6;stroke:#7d7d7d;stroke-width:2.5;stroke-linecap:round;stroke-linejoin:round}.st31{fill:#b0e44f;stroke:#b0e44f;stroke-width:2}.st32{fill:#6fda44}.st33,.st34{fill:none;stroke:#b2b2b2;stroke-width:2.44;stroke-linecap:round;stroke-linejoin:round}.st34{fill:#d5f7ff;stroke-width:2.5}.st35{fill:#73e6ff}.st36{fill:#cbed8b;stroke:#7d7d7d;stroke-width:2.5;stroke-linecap:round;stroke-linejoin:round}.st37{fill:#909090}.st38{fill:#d5f7ff;stroke:#909090;stroke-width:3;stroke-linecap:round;stroke-linejoin:round}.st39{fill:#a3eeff}.st40,.st41,.st42{fill:#f9f9f9;stroke:#7d7d7d;stroke-width:2.5;stroke-linecap:round;stroke-linejoin:round}.st41,.st42{fill:#e0e0e0;stroke:#909090;stroke-width:3}.st42{fill:none}</style><path class="st15" d="M21.8 41.5V127h131.3V41.5"/><path class="st16" d="M153.1 36.1c0-3.2-2.6-5.7-5.7-5.7H27.6c-3.2 0-5.7 2.6-5.7 5.7v5.3h131.3l-.1-5.3z"/><path class="st17" d="M31.2 38.5c1.1-.1 1.9-1 1.8-2.1-.1-1-.8-1.8-1.8-1.8-1.1.1-1.9 1-1.8 2.1.1.9.8 1.7 1.8 1.8z"/><path class="st18" d="M38.7 38.5c1.1-.1 1.9-1 1.8-2.1-.1-1-.8-1.8-1.8-1.8-1.1.1-1.9 1-1.8 2.1 0 .9.8 1.7 1.8 1.8z"/><path class="st19" d="M46.1 38.5c1.1-.1 1.9-1 1.8-2.1-.1-1-.8-1.8-1.8-1.8-1.1.1-1.9 1-1.8 2.1.1.9.9 1.7 1.8 1.8z"/><path class="st28" d="M65.5 53.5h43.9v62.7H65.5z"/><path class="st20" d="M73.7 20.4c.7 0 1.3-.6 1.3-1.3 0-.7-.6-1.3-1.3-1.3-.7 0-1.3.6-1.3 1.3 0 .7.6 1.3 1.3 1.3z"/><path class="st21" d="M95 5.4c1.1-.1 1.9-1 1.8-2.1-.1-1-.8-1.8-1.8-1.8-1.1.1-1.9 1-1.8 2.1 0 1 .8 1.8 1.8 1.8z"/><path class="st22" d="M93.4 21.7s2.7-2.7 5.4 0c-2.7-2.7 0-5.4 0-5.4s-2.7 2.7-5.4 0c2.6 2.7 0 5.4 0 5.4z"/><path class="st23" d="M79.7 2.3v7.4M83.4 6H76"/><path class="st5" d="M73 99.4h27.9c.1 0 .2.1.2.2v8c0 .1-.1.2-.2.2H73c-.1 0-.2-.1-.2-.2v-8c0-.1.1-.2.2-.2z"/><circle class="st25" cx="87.5" cy="77.2" r="16.2"/><path class="st29" d="M87.5 68.5c3.5 0 6.3 2.8 6.3 6.3v2.1c0 3.5-2.8 6.3-6.3 6.3s-6.3-2.8-6.3-6.3v-2.1c0-3.5 2.8-6.3 6.3-6.3z"/><path class="st29" d="M85.3 82h3.9v3.9h-3.9z"/><path class="st29" d="M87.4 83.9c-4.2 0-7.9 2.4-9.6 6.3 5.7 4.4 13.6 4.5 19.4.2-1.7-4-5.6-6.5-9.8-6.5z"/><circle class="st0" cx="43.8" cy="77.2" r="16.2"/><path class="st28" d="M43.8 68.5c3.5 0 6.3 2.8 6.3 6.3v2.1c0 3.5-2.8 6.3-6.3 6.3s-6.3-2.8-6.3-6.3v-2.1c.1-3.5 2.9-6.3 6.3-6.3z"/><path class="st28" d="M41.6 82h3.9v3.9h-3.9z"/><path class="st28" d="M43.7 83.9c-4.2 0-7.9 2.4-9.6 6.3 5.7 4.4 13.6 4.5 19.4.2-1.7-4-5.5-6.5-9.8-6.5z"/><circle class="st0" cx="131.1" cy="77.2" r="16.2"/><path class="st28" d="M131.1 68.5c3.5 0 6.3 2.8 6.3 6.3v2.1c0 3.5-2.8 6.3-6.3 6.3s-6.3-2.8-6.3-6.3v-2.1c0-3.5 2.9-6.3 6.3-6.3z"/><path class="st28" d="M128.9 82h3.9v3.9h-3.9z"/><path class="st28" d="M131 83.9c-4.2 0-7.9 2.4-9.6 6.3 5.7 4.4 13.6 4.5 19.4.2-1.7-4-5.5-6.5-9.8-6.5z"/><path class="st24" d="M83.6 122.6v-12.8c0-1.1.9-1.9 1.9-1.9 1.1 0 1.9.9 1.9 1.9v5.4h3.9c2.2 0 3.9 1.8 3.9 3.9v6.6c0 4.3-3.5 7.7-7.7 7.7-4.3 0-7.7-3.5-7.7-7.7v-3.9c0-2.1 1.7-3.9 3.8-4.1"/></svg>